HIERARCHY
ROOT Hips
{
	OFFSET -3.958830 18.904000 13.208200
	CHANNELS 6 Xposition Yposition Zposition Zrotation Yrotation Xrotation 
	JOINT LHipJoint
	{
		OFFSET 0.000000 0.000000 0.000000
		CHANNELS 3 Zrotation Yrotation Xrotation
		JOINT LeftUpLeg
		{
			OFFSET 1.800000 -1.400000 0.085000
			CHANNELS 3 Zrotation Yrotation Xrotation
			JOINT LeftLeg
			{
				OFFSET 2.215000 -6.000000 0.000000
				CHANNELS 3 Zrotation Yrotation Xrotation
				JOINT LeftFoot
				{
					OFFSET 2.500000 -6.900000 0.000000
					CHANNELS 3 Zrotation Yrotation Xrotation
					JOINT LeftToeBase
					{
						OFFSET 0.200000 -0.500000 1.950000
						CHANNELS 3 Zrotation Yrotation Xrotation
						End Site
						{
							OFFSET 0.000000 0.000000 0.000000
						}
					}
				}
			}
		}
	}
	JOINT RHipJoint
	{
		OFFSET 0.000000 0.000000 0.000000
		CHANNELS 3 Zrotation Yrotation Xrotation
		JOINT RightUpLeg
		{
			OFFSET -1.800000 -1.400000 0.085000
			CHANNELS 3 Zrotation Yrotation Xrotation
			JOINT RightLeg
			{
				OFFSET -2.215000 -6.000000 0.000000
				CHANNELS 3 Zrotation Yrotation Xrotation
				JOINT RightFoot
				{
					OFFSET -2.500000 -6.900000 0.000000
					CHANNELS 3 Zrotation Yrotation Xrotation
					JOINT RightToeBase
					{
						OFFSET -0.200000 -0.500000 1.950000
						CHANNELS 3 Zrotation Yrotation Xrotation
						End Site
						{
							OFFSET 0.000000 0.000000 0.000000
						}
					}
				}
			}
		}
	}
	JOINT LowerBack
	{
		OFFSET 0.000000 0.000000 0.000000
		CHANNELS 3 Zrotation Yrotation Xrotation
		JOINT Spine
		{
			OFFSET -0.087000 1.940000 -0.288900
			CHANNELS 3 Zrotation Yrotation Xrotation
			JOINT Spine1
			{
				OFFSET 0.000000 1.950000 0.060000
				CHANNELS 3 Zrotation Yrotation Xrotation
				JOINT Neck
				{
					OFFSET 0.000000 0.000000 0.000000
					CHANNELS 3 Zrotation Yrotation Xrotation
					JOINT Neck1
					{
						OFFSET 0.000000 1.600000 0.340000
						CHANNELS 3 Zrotation Yrotation Xrotation
						JOINT Head
						{
							OFFSET 0.000000 1.667000 -0.240000
							CHANNELS 3 Zrotation Yrotation Xrotation
							End Site
							{
								OFFSET 0.000000 0.000000 0.000000
							}
						}
					}
				}
				JOINT LeftShoulder
				{
					OFFSET 0.000000 0.000000 0.000000
					CHANNELS 3 Zrotation Yrotation Xrotation
					JOINT LeftArm
					{
						OFFSET 2.700000 1.550000 -0.730000
						CHANNELS 3 Zrotation Yrotation Xrotation
						JOINT LeftForeArm
						{
							OFFSET 5.450000 0.000000 0.000000
							CHANNELS 3 Zrotation Yrotation Xrotation
							JOINT LeftHand
							{
								OFFSET 3.450000 0.000000 0.000000
								CHANNELS 3 Zrotation Yrotation Xrotation
								JOINT LeftHandIndex1
								{
									OFFSET 0.750000 0.000000 0.000000
									CHANNELS 3 Zrotation Yrotation Xrotation
									End Site
									{
										OFFSET 0.000000 0.000000 0.000000
									}
								}
							}
						}
					}
				}
				JOINT RightShoulder
				{
					OFFSET 0.000000 0.000000 0.000000
					CHANNELS 3 Zrotation Yrotation Xrotation
					JOINT RightArm
					{
						OFFSET -2.700000 1.550000 -0.730000
						CHANNELS 3 Zrotation Yrotation Xrotation
						JOINT RightForeArm
						{
							OFFSET -5.450000 0.000000 0.000000
							CHANNELS 3 Zrotation Yrotation Xrotation
							JOINT RightHand
							{
								OFFSET -3.450000 0.000000 0.000000
								CHANNELS 3 Zrotation Yrotation Xrotation
								JOINT RightHandIndex1
								{
									OFFSET -0.750000 0.000000 0.000000
									CHANNELS 3 Zrotation Yrotation Xrotation
									End Site
									{
										OFFSET 0.000000 0.000000 0.000000
									}
								}
							}
						}
					}
				}
			}
		}
	}
}
MOTION
Frames: 8
Frame Time: 0.016667
-1.135990 15.937730 -1.321170 -3.293634 -19.968978 11.332328 -15.733832 8.762915 6.585701 27.920914 -3.606288 -48.540166 -43.822743 26.280642 31.339827 1.362295 12.162559 0.597427 0.450870 0.025440 0.600630 18.628877 -6.456963 4.740094 -29.788644 5.869758 -47.785342 36.694210 -22.437427 35.050056 -1.305779 -9.337863 1.212155 0.059190 0.192050 0.325280 -3.990298 -2.149747 -10.224132 17.426319 -2.747109 25.783378 1.840508 1.095723 1.564821 -1.276123 -5.905462 -5.903850 -12.464912 6.580782 31.920141 -15.127750 10.819110 -1.932610 -18.937399 1.139100 0.104308 -7.610485 7.766476 -1.656509 -28.029128 -46.966899 11.224651 -3.879402 3.646041 0.287410 0.351960 -0.120180 0.144180 20.581201 3.949843 2.384639 36.133114 0.880071 -9.018813 9.129278 40.628748 2.153373 1.956124 -1.776033 -0.130290 -0.022370 -0.179260 -0.325790 
-1.139550 15.890440 -1.322310 -3.085395 -19.908918 10.661613 -15.775433 8.840659 6.578227 27.943939 -3.505082 -48.255030 -44.124336 26.920334 31.899732 1.445427 12.290680 0.581592 0.442050 0.015960 0.563000 18.586107 -6.353308 4.783660 -30.538656 5.760272 -47.632588 37.579419 -23.135718 35.517328 -1.363111 -9.541490 1.163095 0.041720 0.211210 0.322820 -3.856972 -2.426582 -10.281941 16.935608 -2.758105 26.938037 2.960474 1.140036 1.118369 -1.508143 -6.310839 -6.257582 -13.426891 7.268410 32.327050 -13.921540 10.531560 -1.087770 -19.276128 0.550643 0.571773 -8.577283 8.479190 -1.902668 -28.232343 -45.059883 10.678524 -3.848541 3.646235 0.283380 0.339920 -0.125290 0.166150 21.542124 5.064853 2.668671 34.276916 0.912249 -8.993898 7.351593 40.243542 1.717400 1.968319 -1.783737 -0.121480 -0.025080 -0.182150 -0.298400 
-1.140100 15.830440 -1.319360 -3.135548 -19.946891 9.953370 -15.847859 8.918681 6.588971 28.300974 -3.057374 -47.889314 -44.717588 27.878839 32.455274 1.540472 12.464696 0.539190 0.434210 -0.009770 0.567530 18.519365 -6.183727 4.870495 -31.491259 5.903890 -47.804524 38.788183 -24.180416 36.407131 -1.461337 -9.829337 1.077098 0.005990 0.186960 0.335670 -3.645279 -2.768165 -10.401245 16.409094 -2.434595 28.518480 4.452005 1.635490 0.540897 -1.338737 -6.170976 -6.718904 -13.302252 7.120847 33.073290 -14.008040 10.534710 -0.687070 -20.190415 -0.543526 1.117513 -9.830067 9.427192 -2.363023 -28.942807 -42.419930 10.066976 -3.807837 3.637203 0.298820 0.313890 -0.105480 0.163200 22.350287 6.536534 3.176979 32.565595 0.732048 -9.178181 4.551475 39.603469 0.992232 1.987503 -1.782499 -0.102640 -0.056090 -0.188140 -0.295960 
-1.137450 15.793340 -1.317910 -3.082250 -19.792767 9.041804 -15.901319 9.034345 6.591784 28.391758 -2.768242 -47.534210 -44.659248 28.666192 33.374930 1.642438 12.574063 0.501081 0.465370 0.016130 0.599250 18.457870 -6.092691 4.906292 -31.943517 6.192861 -47.647989 39.118776 -24.763921 37.340196 -1.538261 -10.002466 1.031760 -0.018380 0.121040 0.350080 -3.452253 -3.047215 -10.490639 15.901907 -2.248775 30.135165 5.616412 1.982361 0.009158 -1.114213 -5.996853 -7.260390 -13.156202 6.747290 34.357769 -14.484800 10.484420 -0.600490 -20.916296 -1.726644 1.773456 -11.181875 10.567432 -2.904495 -30.567763 -39.752988 9.688624 -3.739740 3.650470 0.305620 0.271040 -0.063340 0.164220 22.860462 8.129513 3.584061 31.834715 1.412639 -9.189196 1.639289 38.018722 0.179143 2.030055 -1.776872 -0.047610 -0.110860 -0.225180 -0.291460 
-1.113700 15.784370 -1.308360 -3.226542 -19.890918 8.298625 -15.905473 9.141900 6.555330 28.021539 -2.466087 -47.093288 -43.952436 29.212049 34.434017 1.706881 12.654357 0.465716 0.467210 0.021940 0.593000 18.432288 -6.110895 4.920811 -31.952194 6.837247 -47.433458 38.657215 -24.881017 38.367597 -1.575631 -10.088469 1.006048 -0.041930 0.079450 0.357140 -3.388103 -3.102156 -10.526849 16.276324 -2.102494 31.376538 5.894169 2.517765 -0.452626 -0.809171 -5.815334 -7.850150 -12.862689 6.544948 35.718522 -14.541440 10.372130 -0.386250 -21.573733 -2.791473 2.425392 -12.615784 12.031463 -3.554893 -33.522258 -38.281381 9.919678 -3.689239 3.659669 0.315870 0.236820 -0.031980 0.163640 23.027822 9.576546 3.986046 32.335173 2.133254 -9.386440 -1.847321 36.415422 -0.785273 2.068339 -1.751703 -0.014370 -0.146200 -0.237160 -0.281260 
-1.082780 15.819920 -1.295670 -3.283250 -19.989023 7.877274 -15.878554 9.280629 6.488786 27.079512 -2.509703 -46.796107 -42.403073 29.043031 35.422654 1.715170 12.581878 0.456527 0.515860 0.091630 0.629870 18.423460 -6.225708 4.885629 -31.379767 7.528075 -46.984933 37.342088 -24.088997 38.769113 -1.559976 -9.919328 1.055891 -0.030760 0.006660 0.344340 -3.385329 -3.066024 -10.490023 16.774376 -2.090534 32.079509 5.788312 2.926939 -1.080833 -0.597378 -5.879225 -8.082051 -12.963913 6.516831 36.640965 -14.747880 10.222500 -1.683360 -21.856067 -2.932721 2.640962 -15.352971 12.129427 -4.241654 -35.445782 -35.754537 9.426464 -3.624897 3.628208 0.330740 0.181210 0.019290 0.164500 22.896865 10.216297 3.974313 33.943978 3.257440 -9.595724 -4.086484 35.461569 -1.465411 2.106786 -1.719677 0.028450 -0.161950 -0.276110 -0.277710 
-1.059590 15.883610 -1.290630 -3.084542 -19.871985 7.846078 -15.834882 9.406293 6.418238 25.674883 -2.847282 -47.028158 -40.052212 28.501714 36.698624 1.688820 12.496933 0.451573 0.513480 0.105160 0.622180 18.428607 -6.403344 4.830511 -30.289971 8.227972 -46.892706 34.640136 -22.859470 39.645880 -1.487979 -9.676665 1.112426 -0.043270 -0.020670 0.345560 -3.415663 -2.928139 -10.423127 16.827795 -1.947115 31.995211 5.517825 3.192732 -1.587486 -0.534915 -5.933081 -8.387940 -12.877290 6.565924 36.846969 -14.555600 10.022740 -2.594070 -22.097231 -3.335265 3.061320 -17.992972 12.860590 -5.066096 -37.546363 -34.129212 9.074462 -3.606569 3.603415 0.335870 0.152790 0.043020 0.148670 23.041694 10.989509 3.997214 36.301607 4.108968 -10.096422 -6.057559 34.956993 -2.151387 2.130590 -1.686594 0.055520 -0.171840 -0.267580 -0.267710 
-1.016900 15.983280 -1.286630 -2.443797 -19.298547 7.666162 -15.764536 9.623196 6.252612 23.074803 -3.852764 -47.269572 -35.759997 27.313037 39.050026 1.641935 12.323890 0.486831 0.515600 0.119890 0.594070 18.434869 -6.676725 4.779501 -29.449671 8.495337 -46.464838 31.844178 -21.400370 39.996871 -1.384012 -9.356450 1.215899 -0.056660 -0.027410 0.347030 -3.449055 -2.776795 -10.317896 16.685772 -1.570133 31.320618 5.546136 3.471169 -1.726504 -0.546834 -5.987003 -8.937579 -12.978368 6.481118 37.678644 -14.036230 9.606240 -2.085570 -22.156542 -4.192524 3.633767 -21.603764 12.875001 -6.038554 -39.274334 -32.433711 8.511425 -3.585897 3.579891 0.328370 0.139480 0.054130 0.166220 23.201433 12.197369 4.346491 38.165275 4.345075 -10.817000 -8.282700 34.611799 -2.952990 2.143303 -1.691704 0.082690 -0.185630 -0.277760 -0.243610 
